# xmcd
#
# Track frame offsets:
#	150
#	16997
#	36180
#	51797
#	67130
#	88037
#	103450
#	117452
#	131377
#	144935
#	163932
#	179480
#	191877
#
# Disc length: 2758 seconds
# Revision: 0
# Processed by: cddbd v1.5.2PL0 Copyright (c) Steve Scherf et al.
# Submitted via: dBpowerAMP V12.0
#
DISCID=c30ac40d
DTITLE=Jorma Kaukonen - Blue Country Heart
DYEAR=2002
DGENRE=Country
TTITLE0=Blue Railroad Train
TTITLE1=Just Because
TTITLE2=Blues Stay Away from Me
TTITLE3=Red River Blues
TTITLE4=Bread Line Blues
TTITLE5=Waiting for a Train
TTITLE6=Those Gambler's Blues
TTITLE7=Tom Cat Blues
TTITLE8=Big River Blues
TTITLE9=Prohibition Blues
TTITLE10=I'm Free from the Chain Gang Now
TTITLE11=You and My Old Guitar
TTITLE12=What Are They Doing in Heaven Today?
EXTD=
EXTT0=
EXTT1=
EXTT2=
EXTT3=
EXTT4=
EXTT5=
EXTT6=
EXTT7=
EXTT8=
EXTT9=
EXTT10=
EXTT11=
EXTT12=
PLAYORDER=
